#N canvas -22 0 1920 1109 12;
#X text 279 344 creation arguments are OSC address;
#X text 281 305 set message to change OSC address;
#X text 164 48 1 Set IP Address : network address;
#X text 164 68 2 Set Ports (sending and listening);
#X text 164 87 3 Set OSC Addresses (routing osc data;
#X text 155 26 Key Settings;
#X floatatom 145 261 5 0 0 0 - - - 0;
#N canvas -9 253 1920 1109 oscReceive 0;
#X obj 55 184 netreceive -u -b;
#X msg 78 143 listen 0;
#X text 152 143 stop listening;
#X text 64 58 packets from network;
#X text 173 177 UDP packets \, binary output, f 13;
#X obj 45 314 print;
#X obj 45 272 oscparse;
#X text 150 114 listen on port 8000;
#X obj 177 269 oscparse;
#X obj 177 293 list trim;
#X floatatom 68 372 5 0 0 0 - - - 0;
#X text 241 267 Parse the OSC message;
#X obj 177 319 route unity;
#X obj 100 342 route trigger;
#X obj 26 407 s osctrig;
#X msg 66 115 listen 8000;
#X obj 66 84 loadbang;
#X obj 235 348 route playseq;
#X floatatom 246 374 5 0.5 1 0 - - - 0;
#X obj 230 399 s oscplayseq;
#X connect 0 0 6 0;
#X connect 0 0 8 0;
#X connect 1 0 0 0;
#X connect 6 0 5 0;
#X connect 8 0 9 0;
#X connect 9 0 12 0;
#X connect 10 0 14 0;
#X connect 12 0 13 0;
#X connect 12 0 17 0;
#X connect 12 0 17 1;
#X connect 13 0 10 0;
#X connect 15 0 0 0;
#X connect 16 0 15 0;
#X connect 17 0 18 0;
#X connect 18 0 19 0;
#X restore 47 142 pd oscReceive;
#X obj 47 36 tgl 15 0 empty empty empty 17 7 0 10 #fcfcfc #000000 #000000
0 1;
#X msg 47 61 \; pd dsp \$1;
#X obj 146 345 oscformat PD message;
#X msg 178 306 set PD message;
#N canvas 727 97 450 300 oscSend 0;
#X msg 158 207 disconnect;
#X obj 61 253 netsend -u -b;
#X obj 59 55 list prepend send;
#X obj 59 80 list trim;
#X obj 59 29 r oscOut;
#X text 301 163 send to port 8001;
#X obj 147 108 loadbang;
#X msg 147 148 connect localhost 8001;
#X msg 150 175 connect 127.0.0.1 8001;
#X connect 0 0 1 0;
#X connect 2 0 3 0;
#X connect 3 0 1 0;
#X connect 4 0 2 0;
#X connect 6 0 7 0;
#X connect 7 0 1 0;
#X connect 8 0 1 0;
#X restore 47 118 pd oscSend;
#X obj 146 380 s oscOut;
#X obj 1830 1119 dac~;
#X obj 1607 551 noise~;
#X obj 1800 305 line~;
#X obj 1752 192 t b b;
#X obj 1702 272 pack 0 f;
#X floatatom 1760 247 5 0 0 0 - - - 0;
#X obj 1750 110 bng 15 250 50 0 empty empty empty 17 7 0 10 #fcfcfc
#000000 #000000;
#X obj 1593 870 *~;
#X obj 1609 923 *~ 1;
#X obj 1621 649 *~ 1;
#X obj 2074 307 line~;
#X obj 2026 194 t b b;
#X obj 1976 274 pack 0 f;
#X floatatom 2034 249 5 0 0 0 - - - 0;
#X obj 2023 128 bng 15 250 50 0 empty empty empty 17 7 0 10 #fcfcfc
#000000 #000000;
#X obj 1665 871 *~;
#X obj 1839 1071 *~ 1;
#X obj 2300 306 line~;
#X obj 2300 330 pow~ 2;
#X obj 2252 193 t b b;
#X obj 2202 273 pack 0 f;
#X floatatom 2260 248 5 0 0 0 - - - 0;
#X obj 2251 120 bng 15 250 50 0 empty empty empty 17 7 0 10 #fcfcfc
#000000 #000000;
#X obj 1740 873 *~;
#X obj 1454 610 *~ 0.05;
#X obj 1648 387 tgl 15 0 empty empty empty 17 7 0 10 #fcfcfc #000000
#000000 0 1;
#X obj 1693 537 snapshot~;
#X obj 1648 408 metro 2;
#X msg 2074 218 1 2;
#X msg 2300 217 1 2;
#X obj 1776 128 loadbang;
#X obj 2048 130 loadbang;
#X obj 2275 134 loadbang;
#X obj 1648 362 loadbang;
#X msg 1863 981 roomsize \$1;
#X floatatom 1864 959 5 0 0 0 - - - 0;
#X obj 1621 625 *~ 0.5;
#X obj 1695 586 + 300;
#X obj 1693 563 * -200;
#X obj 2074 494 snapshot~;
#X obj 2027 619 *~ 1;
#X floatatom 1985 943 5 0 0 0 - - - 0;
#X msg 1971 982 damping \$1;
#X obj 2585 304 line~;
#X obj 2537 191 t b b;
#X obj 2487 271 pack 0 f;
#X floatatom 2545 246 5 0 0 0 - - - 0;
#X obj 2536 156 bng 15 250 50 0 empty empty empty 17 7 0 10 #fcfcfc
#000000 #000000;
#X text 2591 152 env length ms;
#X obj 2560 132 loadbang;
#X obj 2561 496 *~;
#X obj 2026 218 del 2;
#X obj 2252 217 del 2;
#X obj 1747 28 bng 30 250 50 0 empty empty empty 17 7 0 10 #fcfcfc
#000000 #000000;
#X obj 2557 414 hip~ 100;
#X obj 1450 552 hip~ 3000;
#X obj 1454 581 lop~ 15000;
#X obj 2074 331 pow~ 3;
#X obj 1800 329 pow~ 4;
#X msg 1775 153 50;
#X msg 2049 156 30;
#X obj 2561 442 lop~ 1000;
#X msg 2559 154 5;
#X obj 2023 103 del 18;
#X obj 1747 85 del 150;
#X obj 2525 219 del 150;
#X msg 2585 215 1 150;
#X obj 2561 520 *~ 0.0002;
#X obj 1621 595 bp~ 7500;
#X obj 2074 519 * -80;
#X obj 2076 542 + 100;
#X obj 2027 589 bp~ 7000;
#X obj 2587 328 pow~ 1.5;
#X msg 1871 934 0.01;
#X msg 1992 917 0.99;
#X obj 1858 1007 freeverb~;
#X obj 1854 1038 *~ 0.02;
#X obj 1752 216 del 2;
#X msg 1800 216 1 2;
#X obj 1664 895 *~ 0.1;
#X msg 2275 156 20;
#X obj 2251 96 del 12;
#X text 1710 7 bang on impact;
#X obj 1870 912 loadbang;
#X text 1594 452 Spectral analysis of a recording showed a high pitched
noise with a little resonance around 7500hz., f 21;
#X text 1974 67 second click comes 18 ms after first, f 18;
#X text 2195 66 third click comes 12 ms after second, f 18;
#X text 1369 159 ENVELOPES;
#X text 1474 454 a wider band of noise is combined with the resonant
band, f 16;
#X text 1880 849 a small amount of a short reverb gives the sound a
more natural decay, f 20;
#X text 1741 557 < here the envelope that controls the loudness is
also inverted and sent to the resonance of the band pass filter so
that it gets less resonant as it decays, f 17;
#X obj 1608 952 hip~ 2000;
#X text 1676 931 < here the main 3 impacts run through a high pass
filter to remove unwanted lows, f 21;
#X text 1877 1069 < finally \, the pre-impact roll is mixed in;
#X text 2633 417 a much less high-pitched band of noise is used for
the pre-impact roll, f 20;
#X text 1589 -64 From analysis of recordings \, a typical marble impact
is not a single click but a very quick burst of three or more clicks
getting progressively quieter. Everything here is made of different
ways of filtering white noise with a variety of envelopes.;
#X obj 2245 623 *~ 1;
#X obj 2245 593 bp~ 6500;
#X obj 1740 897 *~ 0.02;
#X msg 2296 560 20;
#X obj 2295 538 loadbang;
#X text 2092 588 < the second and third > impacts have slightly lower/darker
bands of noise, f 12;
#X obj 1593 894 *~ 1;
#X text 1491 871 each click is quieter than the last, f 13;
#X text 1849 330 < pow~ makes the envelope exponential for a more snappy
percussive decay \, the first has a larger exponent so that it is the
most snappy, f 20;
#X text 1806 150 envelope decay length 50 ms, f 14;
#X text 1833 209 envelope attack length 2 ms, f 15;
#X text 1293 578 NOISE AND FILTERS;
#X text 1344 890 MIXING;
#X text 2639 177 Although the main part of the rolling is not included
\, I found it is a key part of the impact that you have a tiny bit
of the roll just before impact otherwise it is lacking body. So this
part is a lower band of noise with a rising attack envelope which swells
just before the impact. This means there is a 150ms delay before the
main click. If you want to to sacrifice this layer to remove the delay
\, delete this section and in the [del 150] object below the "bang
on impact" button \, change 150 to 0;
#X obj 1596 44 r osctrig;
#X obj 778 257 phasor~;
#X obj 779 336 min~;
#X obj 780 452 wrap~;
#X obj 795 359 sig~ 1;
#X obj 795 384 /~;
#X obj 780 407 *~;
#X obj 885 385 min~;
#X obj 885 500 wrap~;
#X obj 900 408 sig~ 1;
#X obj 900 433 /~;
#X obj 885 456 *~;
#X obj 884 330 wrap~;
#X obj 765 919 *~;
#X obj 873 916 *~;
#X obj 816 177 sig~;
#X obj 884 308 +~ 0.5;
#X obj 835 235 sig~ 1;
#X obj 836 258 -~;
#X obj 779 235 *~ 6;
#X obj 780 430 +~ 1e-05;
#X obj 885 478 +~ 1e-05;
#X obj 796 484 r active;
#X obj 873 524 *~;
#X obj 776 528 *~;
#X text 728 541 ---------------------------------;
#X obj 814 1038 dac~;
#X obj 823 992 +~;
#X obj 765 941 *~ 0.8;
#X obj 873 940 *~ 0.8;
#X obj 1171 545 noise~;
#X obj 1178 716 lop~ 16;
#X obj 1073 835 vcf~ 3333 30;
#X obj 1073 678 *~;
#X obj 1073 702 *~;
#X obj 1179 742 *~ 23800;
#X obj 1072 606 /~;
#X obj 1101 579 lop~ 2000;
#X obj 1039 579 lop~ 300;
#X obj 1072 745 clip~ -0.9 0.9;
#X obj 1179 764 +~ 3400;
#X obj 1072 723 *~ 1e-05;
#X obj 1072 643 hip~ 2500;
#X obj 1179 789 clip~ 2000 10000;
#X msg 1169 816 1;
#X obj 1164 835 init 1;
#X obj 1073 865 hip~ 900;
#X obj 1073 897 *~ 0.3;
#X obj 625 549 noise~;
#X obj 632 720 lop~ 16;
#X obj 527 839 vcf~ 3333 30;
#X obj 527 682 *~;
#X obj 527 706 *~;
#X obj 633 746 *~ 23800;
#X obj 526 610 /~;
#X obj 555 583 lop~ 2000;
#X obj 493 583 lop~ 300;
#X obj 526 749 clip~ -0.9 0.9;
#X obj 633 768 +~ 3400;
#X obj 526 727 *~ 1e-05;
#X obj 526 647 hip~ 2500;
#X obj 633 793 clip~ 2000 10000;
#X msg 623 820 1;
#X obj 618 839 init 1;
#X obj 527 869 hip~ 900;
#X obj 527 901 *~ 0.3;
#X obj 790 140 hsl 128 15 0 1 0 1 empty empty speed 32 7 1 8 #fcfcfc
#000000 #000000 0 1;
#X obj 661 212 > 0;
#X obj 669 234 s active;
#X obj 661 278 sel 1;
#X msg 661 299 0;
#X obj 661 320 s bashphase;
#X obj 661 257 change;
#X text 687 113 best here ------;
#X obj 778 66 r oscplayseq;
#X obj 725 106 tgl 15 0 empty empty empty 17 7 0 10 #fcfcfc #000000
#000000 0 0.5;
#X connect 6 0 10 0;
#X connect 8 0 9 0;
#X connect 10 0 13 0;
#X connect 11 0 10 0;
#X connect 15 0 69 0;
#X connect 15 0 82 0;
#X connect 15 0 85 0;
#X connect 15 0 68 0;
#X connect 15 0 111 0;
#X connect 16 0 72 0;
#X connect 17 0 91 0;
#X connect 17 1 92 0;
#X connect 18 0 16 0;
#X connect 19 0 18 1;
#X connect 20 0 17 0;
#X connect 20 0 77 0;
#X connect 21 0 116 0;
#X connect 22 0 105 0;
#X connect 23 0 21 0;
#X connect 24 0 71 0;
#X connect 25 0 65 0;
#X connect 25 1 42 0;
#X connect 26 0 24 0;
#X connect 27 0 26 1;
#X connect 28 0 25 0;
#X connect 29 0 93 0;
#X connect 30 0 14 0;
#X connect 30 0 14 1;
#X connect 31 0 32 0;
#X connect 32 0 37 1;
#X connect 33 0 66 0;
#X connect 33 1 43 0;
#X connect 34 0 31 0;
#X connect 35 0 34 1;
#X connect 36 0 33 0;
#X connect 37 0 112 0;
#X connect 38 0 50 0;
#X connect 39 0 41 0;
#X connect 40 0 52 0;
#X connect 41 0 40 0;
#X connect 41 0 53 0;
#X connect 42 0 24 0;
#X connect 43 0 31 0;
#X connect 44 0 73 0;
#X connect 45 0 74 0;
#X connect 46 0 94 0;
#X connect 47 0 39 0;
#X connect 48 0 89 0;
#X connect 49 0 48 0;
#X connect 50 0 23 0;
#X connect 51 0 82 2;
#X connect 52 0 51 0;
#X connect 53 0 83 0;
#X connect 54 0 29 0;
#X connect 55 0 56 0;
#X connect 56 0 89 0;
#X connect 57 0 86 0;
#X connect 58 0 79 0;
#X connect 58 1 80 0;
#X connect 59 0 57 0;
#X connect 60 0 59 1;
#X connect 61 0 58 0;
#X connect 63 0 76 0;
#X connect 64 0 81 0;
#X connect 65 0 26 0;
#X connect 66 0 34 0;
#X connect 67 0 61 0;
#X connect 67 0 78 0;
#X connect 68 0 75 0;
#X connect 69 0 70 0;
#X connect 70 0 38 0;
#X connect 71 0 29 1;
#X connect 71 0 53 0;
#X connect 72 0 21 1;
#X connect 72 0 40 0;
#X connect 73 0 19 0;
#X connect 74 0 27 0;
#X connect 75 0 64 0;
#X connect 76 0 60 0;
#X connect 77 0 28 0;
#X connect 77 0 95 0;
#X connect 78 0 20 0;
#X connect 79 0 59 0;
#X connect 80 0 57 0;
#X connect 81 0 30 0;
#X connect 82 0 50 0;
#X connect 83 0 84 0;
#X connect 84 0 85 2;
#X connect 85 0 54 0;
#X connect 86 0 64 1;
#X connect 87 0 49 0;
#X connect 88 0 55 0;
#X connect 89 0 90 0;
#X connect 90 0 30 0;
#X connect 91 0 18 0;
#X connect 92 0 16 0;
#X connect 93 0 22 0;
#X connect 94 0 35 0;
#X connect 95 0 36 0;
#X connect 97 0 87 0;
#X connect 97 0 88 0;
#X connect 105 0 30 0;
#X connect 105 0 89 0;
#X connect 110 0 37 0;
#X connect 111 0 110 0;
#X connect 112 0 22 0;
#X connect 113 0 111 2;
#X connect 114 0 113 0;
#X connect 116 0 22 0;
#X connect 124 0 67 0;
#X connect 125 0 126 0;
#X connect 125 0 140 0;
#X connect 126 0 130 0;
#X connect 127 0 148 0;
#X connect 128 0 129 0;
#X connect 129 0 130 1;
#X connect 130 0 144 0;
#X connect 131 0 135 0;
#X connect 132 0 147 1;
#X connect 133 0 134 0;
#X connect 134 0 135 1;
#X connect 135 0 145 0;
#X connect 136 0 131 0;
#X connect 137 0 152 0;
#X connect 138 0 153 0;
#X connect 139 0 142 1;
#X connect 139 0 143 0;
#X connect 140 0 136 0;
#X connect 141 0 142 0;
#X connect 142 0 126 1;
#X connect 142 0 129 1;
#X connect 142 0 131 1;
#X connect 142 0 134 1;
#X connect 143 0 125 0;
#X connect 144 0 127 0;
#X connect 145 0 132 0;
#X connect 146 0 147 0;
#X connect 146 0 148 1;
#X connect 147 0 138 0;
#X connect 148 0 137 1;
#X connect 151 0 150 0;
#X connect 151 0 150 1;
#X connect 152 0 151 0;
#X connect 153 0 151 1;
#X connect 154 0 155 0;
#X connect 154 0 161 0;
#X connect 154 0 162 0;
#X connect 155 0 159 0;
#X connect 156 0 170 0;
#X connect 157 0 158 0;
#X connect 157 0 158 1;
#X connect 158 0 165 0;
#X connect 159 0 164 0;
#X connect 160 0 166 0;
#X connect 161 0 160 1;
#X connect 162 0 160 0;
#X connect 163 0 156 0;
#X connect 164 0 167 0;
#X connect 165 0 163 0;
#X connect 166 0 157 0;
#X connect 166 0 157 1;
#X connect 167 0 156 1;
#X connect 168 0 156 2;
#X connect 169 0 156 2;
#X connect 170 0 171 0;
#X connect 171 0 138 1;
#X connect 172 0 173 0;
#X connect 172 0 179 0;
#X connect 172 0 180 0;
#X connect 173 0 177 0;
#X connect 174 0 188 0;
#X connect 175 0 176 0;
#X connect 175 0 176 1;
#X connect 176 0 183 0;
#X connect 177 0 182 0;
#X connect 178 0 184 0;
#X connect 179 0 178 1;
#X connect 180 0 178 0;
#X connect 181 0 174 0;
#X connect 182 0 185 0;
#X connect 183 0 181 0;
#X connect 184 0 175 0;
#X connect 184 0 175 1;
#X connect 185 0 174 1;
#X connect 186 0 174 2;
#X connect 187 0 174 2;
#X connect 188 0 189 0;
#X connect 189 0 137 0;
#X connect 190 0 139 0;
#X connect 190 0 191 0;
#X connect 191 0 192 0;
#X connect 191 0 196 0;
#X connect 193 0 194 0;
#X connect 194 0 195 0;
#X connect 196 0 193 0;
#X connect 198 0 199 0;
#X connect 199 0 190 0;
