#N canvas -2 215 1920 1109 12;
#X text 279 344 creation arguments are OSC address;
#X text 281 305 set message to change OSC address;
#X text 164 48 1 Set IP Address : network address;
#X text 164 68 2 Set Ports (sending and listening);
#X text 164 87 3 Set OSC Addresses (routing osc data;
#X text 155 26 Key Settings;
#X floatatom 145 261 5 0 0 0 - - - 0;
#N canvas -102 276 1920 1109 oscReceive 0;
#X obj 55 184 netreceive -u -b;
#X msg 78 143 listen 0;
#X text 152 143 stop listening;
#X text 64 58 packets from network;
#X text 173 177 UDP packets \, binary output, f 13;
#X obj 45 314 print;
#X obj 45 272 oscparse;
#X text 150 114 listen on port 8000;
#X obj 177 269 oscparse;
#X obj 177 293 list trim;
#X floatatom 68 372 5 0 0 0 - - - 0;
#X text 241 267 Parse the OSC message;
#X obj 335 305 route unity;
#X obj 100 342 route trigger;
#X obj 26 407 s osctrig;
#X msg 66 115 listen 8000;
#X obj 66 84 loadbang;
#X obj 235 348 route playseq;
#X floatatom 246 374 5 0 1 0 - - - 0;
#X obj 230 399 s oscplayseq;
#X obj 386 345 route foot;
#X floatatom 386 369 5 0 0 0 - - - 0;
#X obj 396 405 s oscfoot;
#X connect 0 0 6 0;
#X connect 0 0 8 0;
#X connect 1 0 0 0;
#X connect 6 0 5 0;
#X connect 8 0 9 0;
#X connect 9 0 12 0;
#X connect 10 0 14 0;
#X connect 12 0 13 0;
#X connect 12 0 17 0;
#X connect 12 0 17 1;
#X connect 12 0 20 0;
#X connect 12 0 20 1;
#X connect 13 0 10 0;
#X connect 15 0 0 0;
#X connect 16 0 15 0;
#X connect 17 0 18 0;
#X connect 18 0 19 0;
#X connect 20 0 21 0;
#X connect 21 0 22 0;
#X restore 47 142 pd oscReceive;
#X obj 47 36 tgl 15 0 empty empty empty 17 7 0 10 #fcfcfc #000000 #000000
0 1;
#X msg 47 61 \; pd dsp \$1;
#X obj 146 345 oscformat PD message;
#X msg 178 306 set PD message;
#N canvas 727 97 450 300 oscSend 0;
#X msg 158 207 disconnect;
#X obj 61 253 netsend -u -b;
#X obj 59 55 list prepend send;
#X obj 59 80 list trim;
#X obj 59 29 r oscOut;
#X text 301 163 send to port 8001;
#X obj 147 108 loadbang;
#X msg 147 148 connect localhost 8001;
#X msg 150 175 connect 127.0.0.1 8001;
#X connect 0 0 1 0;
#X connect 2 0 3 0;
#X connect 3 0 1 0;
#X connect 4 0 2 0;
#X connect 6 0 7 0;
#X connect 7 0 1 0;
#X connect 8 0 1 0;
#X restore 47 118 pd oscSend;
#X obj 146 380 s oscOut;
#X obj 1830 1119 dac~;
#X obj 1607 551 noise~;
#X obj 1800 305 line~;
#X obj 1752 192 t b b;
#X obj 1702 272 pack 0 f;
#X floatatom 1760 247 5 0 0 0 - - - 0;
#X obj 1750 110 bng 15 250 50 0 empty empty empty 17 7 0 10 #fcfcfc
#000000 #000000;
#X obj 1593 870 *~;
#X obj 1609 923 *~ 1;
#X obj 1621 649 *~ 1;
#X obj 2074 307 line~;
#X obj 2026 194 t b b;
#X obj 1976 274 pack 0 f;
#X floatatom 2034 249 5 0 0 0 - - - 0;
#X obj 2023 128 bng 15 250 50 0 empty empty empty 17 7 0 10 #fcfcfc
#000000 #000000;
#X obj 1665 871 *~;
#X obj 1839 1071 *~ 1;
#X obj 2300 306 line~;
#X obj 2300 330 pow~ 2;
#X obj 2252 193 t b b;
#X obj 2202 273 pack 0 f;
#X floatatom 2260 248 5 0 0 0 - - - 0;
#X obj 2251 120 bng 15 250 50 0 empty empty empty 17 7 0 10 #fcfcfc
#000000 #000000;
#X obj 1740 873 *~;
#X obj 1454 610 *~ 0.05;
#X obj 1648 387 tgl 15 0 empty empty empty 17 7 0 10 #fcfcfc #000000
#000000 0 1;
#X obj 1693 537 snapshot~;
#X obj 1648 408 metro 2;
#X msg 2074 218 1 2;
#X msg 2300 217 1 2;
#X obj 1776 128 loadbang;
#X obj 2048 130 loadbang;
#X obj 2275 134 loadbang;
#X obj 1648 362 loadbang;
#X msg 1863 981 roomsize \$1;
#X floatatom 1864 959 5 0 0 0 - - - 0;
#X obj 1621 625 *~ 0.5;
#X obj 1695 586 + 300;
#X obj 1693 563 * -200;
#X obj 2074 494 snapshot~;
#X obj 2027 619 *~ 1;
#X floatatom 1985 943 5 0 0 0 - - - 0;
#X msg 1971 982 damping \$1;
#X obj 2585 304 line~;
#X obj 2537 191 t b b;
#X obj 2487 271 pack 0 f;
#X floatatom 2545 246 5 0 0 0 - - - 0;
#X obj 2536 156 bng 15 250 50 0 empty empty empty 17 7 0 10 #fcfcfc
#000000 #000000;
#X text 2591 152 env length ms;
#X obj 2560 132 loadbang;
#X obj 2561 496 *~;
#X obj 2026 218 del 2;
#X obj 2252 217 del 2;
#X obj 1747 28 bng 30 250 50 0 empty empty empty 17 7 0 10 #fcfcfc
#000000 #000000;
#X obj 2557 414 hip~ 100;
#X obj 1450 552 hip~ 3000;
#X obj 1454 581 lop~ 15000;
#X obj 2074 331 pow~ 3;
#X obj 1800 329 pow~ 4;
#X msg 1775 153 50;
#X msg 2049 156 30;
#X obj 2561 442 lop~ 1000;
#X msg 2559 154 5;
#X obj 2023 103 del 18;
#X obj 1747 85 del 150;
#X obj 2525 219 del 150;
#X msg 2585 215 1 150;
#X obj 2561 520 *~ 0.0002;
#X obj 1621 595 bp~ 7500;
#X obj 2074 519 * -80;
#X obj 2076 542 + 100;
#X obj 2027 589 bp~ 7000;
#X obj 2587 328 pow~ 1.5;
#X msg 1871 934 0.01;
#X msg 1992 917 0.99;
#X obj 1858 1007 freeverb~;
#X obj 1854 1038 *~ 0.02;
#X obj 1752 216 del 2;
#X msg 1800 216 1 2;
#X obj 1664 895 *~ 0.1;
#X msg 2275 156 20;
#X obj 2251 96 del 12;
#X text 1710 7 bang on impact;
#X obj 1870 912 loadbang;
#X text 1594 452 Spectral analysis of a recording showed a high pitched
noise with a little resonance around 7500hz., f 21;
#X text 1974 67 second click comes 18 ms after first, f 18;
#X text 2195 66 third click comes 12 ms after second, f 18;
#X text 1369 159 ENVELOPES;
#X text 1474 454 a wider band of noise is combined with the resonant
band, f 16;
#X text 1880 849 a small amount of a short reverb gives the sound a
more natural decay, f 20;
#X text 1741 557 < here the envelope that controls the loudness is
also inverted and sent to the resonance of the band pass filter so
that it gets less resonant as it decays, f 17;
#X obj 1608 952 hip~ 2000;
#X text 1676 931 < here the main 3 impacts run through a high pass
filter to remove unwanted lows, f 21;
#X text 1877 1069 < finally \, the pre-impact roll is mixed in;
#X text 2633 417 a much less high-pitched band of noise is used for
the pre-impact roll, f 20;
#X text 1589 -64 From analysis of recordings \, a typical marble impact
is not a single click but a very quick burst of three or more clicks
getting progressively quieter. Everything here is made of different
ways of filtering white noise with a variety of envelopes.;
#X obj 2245 623 *~ 1;
#X obj 2245 593 bp~ 6500;
#X obj 1740 897 *~ 0.02;
#X msg 2296 560 20;
#X obj 2295 538 loadbang;
#X text 2092 588 < the second and third > impacts have slightly lower/darker
bands of noise, f 12;
#X obj 1593 894 *~ 1;
#X text 1491 871 each click is quieter than the last, f 13;
#X text 1849 330 < pow~ makes the envelope exponential for a more snappy
percussive decay \, the first has a larger exponent so that it is the
most snappy, f 20;
#X text 1806 150 envelope decay length 50 ms, f 14;
#X text 1833 209 envelope attack length 2 ms, f 15;
#X text 1293 578 NOISE AND FILTERS;
#X text 1344 890 MIXING;
#X text 2639 177 Although the main part of the rolling is not included
\, I found it is a key part of the impact that you have a tiny bit
of the roll just before impact otherwise it is lacking body. So this
part is a lower band of noise with a rising attack envelope which swells
just before the impact. This means there is a 150ms delay before the
main click. If you want to to sacrifice this layer to remove the delay
\, delete this section and in the [del 150] object below the "bang
on impact" button \, change 150 to 0;
#X obj 1596 44 r osctrig;
#X text 687 113 best here ------;
#X obj 778 66 r oscplayseq;
#X obj 840 295 phasor~;
#X obj 841 374 min~;
#X obj 842 490 wrap~;
#X obj 857 397 sig~ 1;
#X obj 857 422 /~;
#X obj 842 445 *~;
#X obj 947 423 min~;
#X obj 947 538 wrap~;
#X obj 962 446 sig~ 1;
#X obj 962 471 /~;
#X obj 947 494 *~;
#X obj 946 368 wrap~;
#X obj 827 779 *~;
#X obj 935 776 *~;
#X obj 850 237 sig~;
#X obj 946 346 +~ 0.5;
#X obj 897 273 sig~ 1;
#X obj 898 296 -~;
#X obj 842 468 +~ 1e-05;
#X obj 947 516 +~ 1e-05;
#X obj 858 522 r active;
#X obj 935 562 *~;
#X obj 844 560 *~;
#X obj 876 898 dac~;
#X obj 885 852 +~;
#X obj 1230 406 noise~;
#X obj 1237 577 lop~ 16;
#X obj 1132 696 vcf~ 3333 30;
#X obj 1132 539 *~;
#X obj 1132 563 *~;
#X obj 1238 603 *~ 23800;
#X obj 1131 467 /~;
#X obj 1160 440 lop~ 2000;
#X obj 1098 440 lop~ 300;
#X obj 1131 606 clip~ -0.9 0.9;
#X obj 1238 625 +~ 3400;
#X obj 1131 584 *~ 1e-05;
#X obj 1131 504 hip~ 2500;
#X obj 1238 650 clip~ 2000 10000;
#X msg 1228 677 1;
#X obj 1132 726 hip~ 900;
#X obj 1132 758 *~ 0.3;
#X obj 694 409 noise~;
#X obj 701 580 lop~ 16;
#X obj 596 699 vcf~ 3333 30;
#X obj 596 542 *~;
#X obj 596 566 *~;
#X obj 702 606 *~ 23800;
#X obj 595 470 /~;
#X obj 624 443 lop~ 2000;
#X obj 562 443 lop~ 300;
#X obj 595 609 clip~ -0.9 0.9;
#X obj 702 628 +~ 3400;
#X obj 595 587 *~ 1e-05;
#X obj 595 507 hip~ 2500;
#X obj 702 653 clip~ 2000 10000;
#X msg 692 680 1;
#X obj 596 729 hip~ 900;
#X obj 596 761 *~ 0.3;
#X obj 723 250 > 0;
#X obj 731 272 s active;
#X obj 723 316 sel 1;
#X msg 723 337 0;
#X obj 723 358 s bashphase;
#X obj 723 295 change;
#X obj 827 801 *~ 2;
#X obj 935 800 *~ 2;
#X msg 803 200 0.07;
#X obj 841 273 *~ 5;
#X obj 792 241 tgl 15 0 empty empty empty 17 7 0 10 #fcfcfc #000000
#000000 0 1;
#X obj 932 986 t b f;
#X msg 924 1369 0 0 0 \, 0.5 \$1 0;
#X msg 1105 1369 0 0 0 \, 0.5 \$1 0;
#X obj 923 1432 vline~;
#X obj 917 1488 *~ -1;
#X obj 915 1599 cos~;
#X obj 912 1643 *~;
#X obj 1122 1441 vline~;
#X obj 1116 1497 *~ -1;
#X obj 1114 1608 cos~;
#X obj 1111 1652 *~;
#X obj 998 1705 +~;
#X obj 989 1817 dac~;
#X obj 1114 1556 +~ 0.25;
#X obj 915 1547 +~ 0.25;
#X obj 1002 891 r oscfoot;
#X obj 1025 948 hsl 128 15 0 500 0 0 empty empty empty -2 -8 0 10 #fcfcfc
#000000 #000000 0 1;
#X obj 1042 1009 / 1000;
#X obj 1037 1046 t b f;
#X msg 1037 1070 1;
#X obj 1037 1094 -;
#X obj 1128 1023 min 1000;
#X obj 1138 1094 max 150;
#X obj 1041 1123 * 1000;
#X obj 1127 1131 / 4;
#X obj 916 1050 > 1;
#X obj 916 1111 change;
#X obj 956 1144 metro;
#X obj 916 1159 t b;
#X obj 1051 1188 f;
#X obj 1098 1252 / 4;
#X obj 1036 1290 del;
#X obj 1298 1226 / 1000;
#X obj 1283 1267 t b f;
#X msg 1305 1303 1;
#X obj 1315 1351 -;
#X obj 1102 1323 * 2, f 6;
#X obj 930 1334 f;
#X msg 731 1377 0 0 0 \, 0.5 \$1 0;
#X obj 730 1440 vline~;
#X obj 724 1496 *~ -1;
#X obj 722 1607 cos~;
#X obj 719 1651 *~;
#X obj 722 1555 +~ 0.25;
#N canvas 104 104 450 300 texture 0;
#X obj 125 83 inlet~;
#X obj 128 243 outlet~;
#N canvas 0 0 855 637 8demux~ 0;
#X obj 223 17 inlet;
#X obj 223 47 route snow grass dirt gravel wood concrete metal;
#X obj 372 445 *~;
#X obj 398 445 *~;
#X obj 425 445 *~;
#X obj 451 445 *~;
#X obj 478 445 *~;
#X obj 504 445 *~;
#X obj 531 445 *~;
#X obj 557 445 *~;
#X msg 214 101 1;
#X msg 244 101 0;
#X obj 223 72 t b;
#X msg 268 129 1;
#X msg 298 129 0;
#X obj 277 100 t b;
#X msg 322 157 1;
#X msg 352 157 0;
#X obj 331 128 t b;
#X msg 377 186 1;
#X msg 407 186 0;
#X obj 386 157 t b;
#X msg 429 215 1;
#X msg 459 215 0;
#X obj 438 186 t b;
#X msg 481 244 1;
#X msg 511 244 0;
#X obj 490 215 t b;
#X msg 531 273 1;
#X msg 561 273 0;
#X obj 540 244 t b;
#X msg 581 302 1;
#X msg 611 302 0;
#X obj 590 273 t b;
#X text 586 384 why can I never think of a better way to do this?;
#X obj 204 202 inlet~;
#X obj 372 477 outlet~;
#X obj 398 502 outlet~;
#X obj 426 526 outlet~;
#X obj 452 551 outlet~;
#X obj 479 574 outlet~;
#X obj 505 599 outlet~;
#X obj 530 623 outlet~;
#X obj 556 648 outlet~;
#X connect 0 0 1 0;
#X connect 1 0 12 0;
#X connect 1 1 15 0;
#X connect 1 2 18 0;
#X connect 1 3 21 0;
#X connect 1 4 24 0;
#X connect 1 5 27 0;
#X connect 1 6 30 0;
#X connect 1 7 33 0;
#X connect 2 0 36 0;
#X connect 3 0 37 0;
#X connect 4 0 38 0;
#X connect 5 0 39 0;
#X connect 6 0 40 0;
#X connect 7 0 41 0;
#X connect 8 0 42 0;
#X connect 9 0 43 0;
#X connect 10 0 2 1;
#X connect 11 0 3 1;
#X connect 11 0 4 1;
#X connect 11 0 5 1;
#X connect 11 0 6 1;
#X connect 11 0 7 1;
#X connect 11 0 8 1;
#X connect 11 0 9 1;
#X connect 12 0 10 0;
#X connect 12 0 11 0;
#X connect 13 0 3 1;
#X connect 14 0 2 1;
#X connect 14 0 4 1;
#X connect 14 0 5 1;
#X connect 14 0 6 1;
#X connect 14 0 7 1;
#X connect 14 0 8 1;
#X connect 14 0 9 1;
#X connect 15 0 13 0;
#X connect 15 0 14 0;
#X connect 16 0 4 1;
#X connect 17 0 2 1;
#X connect 17 0 3 1;
#X connect 17 0 5 1;
#X connect 17 0 6 1;
#X connect 17 0 7 1;
#X connect 17 0 8 1;
#X connect 17 0 9 1;
#X connect 18 0 16 0;
#X connect 18 0 17 0;
#X connect 19 0 5 1;
#X connect 20 0 2 1;
#X connect 20 0 3 1;
#X connect 20 0 4 1;
#X connect 20 0 6 1;
#X connect 20 0 7 1;
#X connect 20 0 8 1;
#X connect 20 0 9 1;
#X connect 21 0 19 0;
#X connect 21 0 20 0;
#X connect 22 0 6 1;
#X connect 23 0 2 1;
#X connect 23 0 3 1;
#X connect 23 0 4 1;
#X connect 23 0 5 1;
#X connect 23 0 7 1;
#X connect 23 0 8 1;
#X connect 23 0 9 1;
#X connect 24 0 22 0;
#X connect 24 0 23 0;
#X connect 25 0 7 1;
#X connect 26 0 2 1;
#X connect 26 0 3 1;
#X connect 26 0 4 1;
#X connect 26 0 5 1;
#X connect 26 0 6 1;
#X connect 26 0 8 1;
#X connect 26 0 9 1;
#X connect 27 0 25 0;
#X connect 27 0 26 0;
#X connect 28 0 8 1;
#X connect 29 0 2 1;
#X connect 29 0 3 1;
#X connect 29 0 4 1;
#X connect 29 0 5 1;
#X connect 29 0 6 1;
#X connect 29 0 7 1;
#X connect 29 0 9 1;
#X connect 30 0 28 0;
#X connect 30 0 29 0;
#X connect 31 0 9 1;
#X connect 32 0 2 1;
#X connect 32 0 3 1;
#X connect 32 0 4 1;
#X connect 32 0 5 1;
#X connect 32 0 6 1;
#X connect 32 0 7 1;
#X connect 32 0 8 1;
#X connect 33 0 31 0;
#X connect 33 0 32 0;
#X connect 35 0 2 0;
#X connect 35 0 3 0;
#X connect 35 0 4 0;
#X connect 35 0 5 0;
#X connect 35 0 6 0;
#X connect 35 0 7 0;
#X connect 35 0 8 0;
#X connect 35 0 9 0;
#X restore 125 109 pd 8demux~;
#X obj 190 82 inlet;
#N canvas 0 0 726 641 snowtex 0;
#N canvas 0 0 776 658 snow 0;
#X obj 161 453 *~;
#X obj 109 225 noise~;
#X obj 146 412 vcf~ 200 3;
#X obj 241 366 loadbang;
#X obj 102 270 /~;
#X obj 103 343 clip~ -1 1;
#X obj 60 247 lop~ 110;
#X obj 121 246 lop~ 900;
#X obj 166 169 noise~;
#X obj 165 219 /~;
#X obj 123 196 lop~ 50;
#X obj 184 195 lop~ 70;
#X obj 103 290 *~;
#X obj 192 220 lop~ 10;
#X obj 191 241 *~ 17;
#X obj 190 264 *~;
#X obj 103 313 *~;
#X obj 189 286 +~ 0.5;
#X obj 181 142 inlet~;
#X obj 160 507 outlet~;
#X obj 247 154 switch~;
#X obj 247 128 inlet;
#X obj 102 365 hip~ 300;
#X obj 185 389 +~ 700;
#X obj 185 365 *~ 9000;
#X msg 241 386 0.5;
#X obj 162 476 *~ 0.2;
#X connect 0 0 26 0;
#X connect 1 0 6 0;
#X connect 1 0 7 0;
#X connect 2 0 0 0;
#X connect 3 0 25 0;
#X connect 4 0 12 0;
#X connect 5 0 22 0;
#X connect 6 0 4 0;
#X connect 7 0 4 1;
#X connect 8 0 10 0;
#X connect 8 0 11 0;
#X connect 8 0 13 0;
#X connect 9 0 12 1;
#X connect 10 0 9 0;
#X connect 11 0 9 1;
#X connect 12 0 16 0;
#X connect 13 0 14 0;
#X connect 14 0 15 0;
#X connect 14 0 15 1;
#X connect 15 0 17 0;
#X connect 16 0 5 0;
#X connect 17 0 16 1;
#X connect 18 0 0 1;
#X connect 18 0 24 0;
#X connect 21 0 20 0;
#X connect 22 0 2 0;
#X connect 23 0 2 1;
#X connect 24 0 23 0;
#X connect 25 0 2 2;
#X connect 26 0 19 0;
#X restore 158 117 pd snow;
#X obj 202 75 env~;
#X obj 202 96 > 0.5;
#X obj 180 38 inlet~;
#X obj 158 139 outlet~;
#X connect 0 0 4 0;
#X connect 1 0 2 0;
#X connect 2 0 0 1;
#X connect 3 0 1 0;
#X connect 3 0 0 0;
#X restore 8 170 pd snowtex;
#N canvas 0 0 726 641 dirttex 0;
#X obj 202 75 env~;
#X obj 202 96 > 0.5;
#X obj 180 38 inlet~;
#X obj 158 139 outlet~;
#N canvas 0 0 294 514 dirt 0;
#X obj 54 309 *~;
#X obj 72 47 inlet~;
#X obj 76 443 outlet~;
#X obj 138 59 switch~;
#X obj 138 33 inlet;
#X obj 128 221 osc~;
#X obj 127 157 *~;
#X obj 150 82 noise~;
#X obj 150 127 *~ 70;
#X obj 150 104 lop~ 80;
#X obj 100 127 +~ 0.3;
#X obj 128 242 hip~ 200;
#X obj 71 126 *~;
#X obj 70 148 *~;
#X obj 18 250 osc~ 80;
#X obj 18 228 +~ 40;
#X obj 19 202 *~ 500;
#X obj 77 394 +~;
#X obj 127 264 clip~ -1 1;
#X obj 128 179 *~ 70;
#X obj 126 330 *~ 0.04;
#X obj 55 332 *~ 0.5;
#X obj 128 200 +~ 70;
#X connect 0 0 21 0;
#X connect 1 0 10 0;
#X connect 1 0 12 0;
#X connect 1 0 12 1;
#X connect 4 0 3 0;
#X connect 5 0 11 0;
#X connect 6 0 19 0;
#X connect 7 0 9 0;
#X connect 8 0 6 1;
#X connect 9 0 8 0;
#X connect 10 0 6 0;
#X connect 11 0 18 0;
#X connect 12 0 13 0;
#X connect 12 0 13 1;
#X connect 13 0 0 1;
#X connect 13 0 16 0;
#X connect 14 0 0 0;
#X connect 15 0 14 0;
#X connect 16 0 15 0;
#X connect 17 0 2 0;
#X connect 18 0 20 0;
#X connect 19 0 22 0;
#X connect 20 0 17 1;
#X connect 21 0 17 0;
#X connect 22 0 5 0;
#X restore 158 117 pd dirt;
#X connect 0 0 1 0;
#X connect 1 0 4 1;
#X connect 2 0 0 0;
#X connect 2 0 4 0;
#X connect 4 0 3 0;
#X restore 173 169 pd dirttex;
#N canvas 0 0 726 641 grasstex 0;
#X obj 202 75 env~;
#X obj 202 96 > 0.5;
#X obj 180 38 inlet~;
#X obj 158 139 outlet~;
#N canvas 0 0 888 667 grass 0;
#X obj 163 404 *~;
#X obj 181 142 inlet~;
#X obj 401 564 outlet~;
#X obj 238 140 inlet;
#X obj 180 221 *~;
#X obj 179 243 *~;
#X obj 127 345 osc~ 80;
#X obj 401 527 +~;
#X obj 164 427 *~ 0.8;
#X obj 127 323 +~ 30;
#X obj 127 297 *~ 600;
#X obj 127 369 clip~ 0 0.5;
#X obj 238 166 switch~;
#X obj 725 115 noise~;
#X obj 732 286 lop~ 16;
#X obj 627 405 vcf~ 3333 30;
#X obj 627 248 *~;
#X obj 627 272 *~;
#X obj 733 312 *~ 23800;
#X obj 626 176 /~;
#X obj 655 149 lop~ 2000;
#X obj 593 149 lop~ 300;
#X obj 626 315 clip~ -0.9 0.9;
#X obj 733 334 +~ 3400;
#X obj 626 293 *~ 1e-05;
#X obj 626 213 hip~ 2500;
#X obj 611 489 *~;
#X obj 733 359 clip~ 2000 10000;
#X msg 723 386 1;
#X obj 718 405 init 1;
#X obj 627 435 hip~ 900;
#X obj 627 467 *~ 0.3;
#X connect 0 0 8 0;
#X connect 1 0 4 0;
#X connect 1 0 4 1;
#X connect 1 0 26 0;
#X connect 3 0 12 0;
#X connect 4 0 5 0;
#X connect 4 0 5 1;
#X connect 5 0 0 1;
#X connect 5 0 10 0;
#X connect 6 0 11 0;
#X connect 7 0 2 0;
#X connect 8 0 7 0;
#X connect 9 0 6 0;
#X connect 10 0 9 0;
#X connect 11 0 0 0;
#X connect 13 0 14 0;
#X connect 13 0 20 0;
#X connect 13 0 21 0;
#X connect 14 0 18 0;
#X connect 15 0 30 0;
#X connect 16 0 17 0;
#X connect 16 0 17 1;
#X connect 17 0 24 0;
#X connect 18 0 23 0;
#X connect 19 0 25 0;
#X connect 20 0 19 1;
#X connect 21 0 19 0;
#X connect 22 0 15 0;
#X connect 23 0 27 0;
#X connect 24 0 22 0;
#X connect 25 0 16 0;
#X connect 25 0 16 1;
#X connect 26 0 7 1;
#X connect 27 0 15 1;
#X connect 28 0 15 2;
#X connect 29 0 15 2;
#X connect 30 0 31 0;
#X connect 31 0 26 1;
#X restore 158 117 pd grass;
#X connect 0 0 1 0;
#X connect 1 0 4 1;
#X connect 2 0 0 0;
#X connect 2 0 4 0;
#X connect 4 0 3 0;
#X restore 87 170 pd grasstex;
#N canvas 119 44 726 641 gravtex 0;
#X obj 44 26 env~;
#X obj 44 47 > 0.5;
#X obj 20 -2 inlet~;
#X obj 0 90 outlet~;
#N canvas 126 61 245 451 gravel 0;
#X obj 1 151 inlet~;
#X obj 40 431 outlet~;
#X obj 189 0 inlet;
#X obj 189 26 switch~;
#X obj 108 0 noise~;
#X obj 55 128 *~;
#X obj 56 79 /~;
#X obj 86 42 lop~ 2000;
#X obj 24 42 lop~ 300;
#X obj 55 173 clip~ -0.9 0.9;
#X obj 39 407 *~;
#X obj 73 312 clip~ 500 10000;
#X obj 73 195 lop~ 50;
#X obj 56 102 hip~ 400;
#X obj 55 151 *~ 0.01;
#X obj 73 215 *~ 50000;
#X obj 55 362 hip~ 200;
#X obj 55 385 *~ 2;
#X obj 73 287 +~;
#X obj 89 262 *~ 1000;
#X obj 55 338 vcf~ 3;
#X connect 0 0 10 0;
#X connect 0 0 19 0;
#X connect 2 0 3 0;
#X connect 4 0 7 0;
#X connect 4 0 8 0;
#X connect 4 0 12 0;
#X connect 5 0 14 0;
#X connect 6 0 13 0;
#X connect 7 0 6 1;
#X connect 8 0 6 0;
#X connect 9 0 20 0;
#X connect 10 0 1 0;
#X connect 11 0 20 1;
#X connect 12 0 15 0;
#X connect 13 0 5 0;
#X connect 13 0 5 1;
#X connect 14 0 9 0;
#X connect 15 0 18 0;
#X connect 16 0 17 0;
#X connect 17 0 10 1;
#X connect 18 0 11 0;
#X connect 19 0 18 1;
#X connect 20 0 16 0;
#X restore 0 68 pd gravel;
#X connect 0 0 1 0;
#X connect 1 0 4 1;
#X connect 2 0 0 0;
#X connect 2 0 4 0;
#X connect 4 0 3 0;
#X restore 250 168 pd gravtex;
#N canvas 0 0 726 641 woodtex 0;
#X obj 202 75 env~;
#X obj 202 96 > 0.5;
#X obj 180 38 inlet~;
#X obj 158 139 outlet~;
#N canvas 0 0 1177 818 wood 0;
#X obj 470 445 *~;
#X obj 181 142 inlet~;
#X obj 401 564 outlet~;
#X obj 238 140 inlet;
#X obj 180 221 *~;
#X obj 401 527 +~;
#X obj 237 163 switch~;
#X obj 466 255 noise~;
#X obj 419 322 *~ 6;
#X obj 801 262 noise~;
#X obj 355 423 *~;
#X obj 737 287 bp~ 123 20;
#X obj 180 251 *~ 2;
#X obj 336 293 bp~ 95 90;
#X obj 411 291 bp~ 134 90;
#X obj 489 290 bp~ 139 90;
#X obj 567 290 bp~ 154 90;
#X obj 815 286 bp~ 156 90;
#X obj 893 286 bp~ 189 90;
#X obj 745 318 *~ 8;
#X obj 662 289 bp~ 201 70;
#X obj 243 258 sqrt~;
#X obj 356 449 *~ 0.5;
#X obj 469 469 *~ 0.6;
#X connect 0 0 23 0;
#X connect 1 0 4 0;
#X connect 1 0 4 1;
#X connect 1 0 21 0;
#X connect 3 0 6 0;
#X connect 4 0 12 0;
#X connect 5 0 2 0;
#X connect 7 0 13 0;
#X connect 7 0 14 0;
#X connect 7 0 15 0;
#X connect 7 0 16 0;
#X connect 8 0 10 1;
#X connect 9 0 11 0;
#X connect 9 0 17 0;
#X connect 9 0 18 0;
#X connect 9 0 20 0;
#X connect 10 0 22 0;
#X connect 11 0 19 0;
#X connect 12 0 0 0;
#X connect 13 0 8 0;
#X connect 14 0 8 0;
#X connect 15 0 8 0;
#X connect 16 0 8 0;
#X connect 17 0 19 0;
#X connect 18 0 19 0;
#X connect 19 0 0 1;
#X connect 20 0 19 0;
#X connect 21 0 10 0;
#X connect 22 0 5 0;
#X connect 23 0 5 0;
#X restore 158 117 pd wood;
#X connect 0 0 1 0;
#X connect 1 0 4 1;
#X connect 2 0 0 0;
#X connect 2 0 4 0;
#X connect 4 0 3 0;
#X restore 332 167 pd woodtex;
#X text 233 81 surface select;
#X text 9 83 control envelope;
#X connect 0 0 2 0;
#X connect 2 0 4 0;
#X connect 2 1 6 0;
#X connect 2 2 5 0;
#X connect 2 3 7 0;
#X connect 2 4 8 0;
#X connect 3 0 2 1;
#X connect 4 0 1 0;
#X connect 5 0 1 0;
#X connect 6 0 1 0;
#X connect 7 0 1 0;
#X connect 8 0 1 0;
#X restore 997 1749 pd texture;
#X msg 1264 1759 gravel;
#X obj 64 746 hsl 128 15 0 127 0 0 {empty} {empty} {empty} -2 -8 0
10 #fcfcfc #000000 #000000 0 1;
#X obj 715 1685 *~ 0.5;
#X obj 908 1677 *~ 0.5;
#X obj 1097 1698 *~ 0.25;
#X obj 1056 1790 *~ 0.2;
#X msg 1863 1320 50;
#X msg 1863 1369 0 0 \, 0.5 \$1 0;
#X obj 1862 1396 vline~;
#X obj 1863 1422 *~ -1;
#X obj 1863 1446 +~ 0.25;
#X obj 1865 1478 cos~;
#X obj 1868 1517 *~;
#X obj 1868 1542 *~ 2;
#X obj 1946 1504 noise~;
#X obj 1951 1535 lop~ 100 20;
#X obj 1869 1610 dac~;
#X obj 1868 1572 *~;
#X connect 6 0 10 0;
#X connect 8 0 9 0;
#X connect 10 0 13 0;
#X connect 11 0 10 0;
#X connect 15 0 69 0;
#X connect 15 0 82 0;
#X connect 15 0 85 0;
#X connect 15 0 68 0;
#X connect 15 0 111 0;
#X connect 16 0 72 0;
#X connect 17 0 91 0;
#X connect 17 1 92 0;
#X connect 18 0 16 0;
#X connect 19 0 18 1;
#X connect 20 0 17 0;
#X connect 20 0 77 0;
#X connect 21 0 116 0;
#X connect 22 0 105 0;
#X connect 23 0 21 0;
#X connect 24 0 71 0;
#X connect 25 0 65 0;
#X connect 25 1 42 0;
#X connect 26 0 24 0;
#X connect 27 0 26 1;
#X connect 28 0 25 0;
#X connect 29 0 93 0;
#X connect 30 0 14 0;
#X connect 30 0 14 1;
#X connect 31 0 32 0;
#X connect 32 0 37 1;
#X connect 33 0 66 0;
#X connect 33 1 43 0;
#X connect 34 0 31 0;
#X connect 35 0 34 1;
#X connect 36 0 33 0;
#X connect 37 0 112 0;
#X connect 38 0 50 0;
#X connect 39 0 41 0;
#X connect 40 0 52 0;
#X connect 41 0 40 0;
#X connect 41 0 53 0;
#X connect 42 0 24 0;
#X connect 43 0 31 0;
#X connect 44 0 73 0;
#X connect 45 0 74 0;
#X connect 46 0 94 0;
#X connect 47 0 39 0;
#X connect 48 0 89 0;
#X connect 49 0 48 0;
#X connect 50 0 23 0;
#X connect 51 0 82 2;
#X connect 52 0 51 0;
#X connect 53 0 83 0;
#X connect 54 0 29 0;
#X connect 55 0 56 0;
#X connect 56 0 89 0;
#X connect 57 0 86 0;
#X connect 58 0 79 0;
#X connect 58 1 80 0;
#X connect 59 0 57 0;
#X connect 60 0 59 1;
#X connect 61 0 58 0;
#X connect 63 0 76 0;
#X connect 64 0 81 0;
#X connect 65 0 26 0;
#X connect 66 0 34 0;
#X connect 67 0 61 0;
#X connect 67 0 78 0;
#X connect 68 0 75 0;
#X connect 69 0 70 0;
#X connect 70 0 38 0;
#X connect 71 0 29 1;
#X connect 71 0 53 0;
#X connect 72 0 21 1;
#X connect 72 0 40 0;
#X connect 73 0 19 0;
#X connect 74 0 27 0;
#X connect 75 0 64 0;
#X connect 76 0 60 0;
#X connect 77 0 28 0;
#X connect 77 0 95 0;
#X connect 78 0 20 0;
#X connect 79 0 59 0;
#X connect 80 0 57 0;
#X connect 81 0 30 0;
#X connect 82 0 50 0;
#X connect 83 0 84 0;
#X connect 84 0 85 2;
#X connect 85 0 54 0;
#X connect 86 0 64 1;
#X connect 87 0 49 0;
#X connect 88 0 55 0;
#X connect 89 0 90 0;
#X connect 90 0 30 0;
#X connect 91 0 18 0;
#X connect 92 0 16 0;
#X connect 93 0 22 0;
#X connect 94 0 35 0;
#X connect 95 0 36 0;
#X connect 97 0 87 0;
#X connect 97 0 88 0;
#X connect 105 0 30 0;
#X connect 105 0 89 0;
#X connect 110 0 37 0;
#X connect 111 0 110 0;
#X connect 112 0 22 0;
#X connect 113 0 111 2;
#X connect 114 0 113 0;
#X connect 116 0 22 0;
#X connect 124 0 67 0;
#X connect 126 0 194 0;
#X connect 127 0 128 0;
#X connect 127 0 142 0;
#X connect 128 0 132 0;
#X connect 129 0 149 0;
#X connect 130 0 131 0;
#X connect 131 0 132 1;
#X connect 132 0 145 0;
#X connect 133 0 137 0;
#X connect 134 0 148 1;
#X connect 135 0 136 0;
#X connect 136 0 137 1;
#X connect 137 0 146 0;
#X connect 138 0 133 0;
#X connect 139 0 192 0;
#X connect 140 0 193 0;
#X connect 141 0 144 1;
#X connect 141 0 195 0;
#X connect 142 0 138 0;
#X connect 143 0 144 0;
#X connect 144 0 128 1;
#X connect 144 0 131 1;
#X connect 144 0 133 1;
#X connect 144 0 136 1;
#X connect 145 0 129 0;
#X connect 146 0 134 0;
#X connect 147 0 148 0;
#X connect 147 0 149 1;
#X connect 148 0 140 0;
#X connect 149 0 139 1;
#X connect 151 0 150 0;
#X connect 151 0 150 1;
#X connect 152 0 153 0;
#X connect 152 0 159 0;
#X connect 152 0 160 0;
#X connect 153 0 157 0;
#X connect 154 0 167 0;
#X connect 155 0 156 0;
#X connect 155 0 156 1;
#X connect 156 0 163 0;
#X connect 157 0 162 0;
#X connect 158 0 164 0;
#X connect 159 0 158 1;
#X connect 160 0 158 0;
#X connect 161 0 154 0;
#X connect 162 0 165 0;
#X connect 163 0 161 0;
#X connect 164 0 155 0;
#X connect 164 0 155 1;
#X connect 165 0 154 1;
#X connect 166 0 154 2;
#X connect 167 0 168 0;
#X connect 168 0 140 1;
#X connect 169 0 170 0;
#X connect 169 0 176 0;
#X connect 169 0 177 0;
#X connect 170 0 174 0;
#X connect 171 0 184 0;
#X connect 172 0 173 0;
#X connect 172 0 173 1;
#X connect 173 0 180 0;
#X connect 174 0 179 0;
#X connect 175 0 181 0;
#X connect 176 0 175 1;
#X connect 177 0 175 0;
#X connect 178 0 171 0;
#X connect 179 0 182 0;
#X connect 180 0 178 0;
#X connect 181 0 172 0;
#X connect 181 0 172 1;
#X connect 182 0 171 1;
#X connect 183 0 171 2;
#X connect 184 0 185 0;
#X connect 185 0 139 0;
#X connect 186 0 187 0;
#X connect 186 0 191 0;
#X connect 188 0 189 0;
#X connect 189 0 190 0;
#X connect 191 0 188 0;
#X connect 192 0 151 0;
#X connect 193 0 151 1;
#X connect 194 0 141 0;
#X connect 194 0 196 0;
#X connect 195 0 127 0;
#X connect 196 0 186 0;
#X connect 197 1 214 0;
#X connect 197 1 222 0;
#X connect 198 0 200 0;
#X connect 199 0 204 0;
#X connect 200 0 201 0;
#X connect 201 0 211 0;
#X connect 202 0 203 0;
#X connect 202 0 203 1;
#X connect 203 0 245 0;
#X connect 204 0 205 0;
#X connect 205 0 210 0;
#X connect 206 0 207 0;
#X connect 206 0 207 1;
#X connect 207 0 246 0;
#X connect 208 0 241 0;
#X connect 210 0 206 0;
#X connect 211 0 202 0;
#X connect 212 0 213 0;
#X connect 213 0 197 0;
#X connect 214 0 215 0;
#X connect 215 0 216 0;
#X connect 215 1 217 1;
#X connect 216 0 217 0;
#X connect 217 0 220 0;
#X connect 218 0 219 0;
#X connect 219 0 221 0;
#X connect 219 0 224 1;
#X connect 220 0 218 0;
#X connect 221 0 226 1;
#X connect 221 0 229 0;
#X connect 222 0 223 0;
#X connect 223 0 224 0;
#X connect 224 0 225 0;
#X connect 225 0 226 0;
#X connect 225 0 228 0;
#X connect 226 0 227 0;
#X connect 226 0 228 1;
#X connect 226 0 233 0;
#X connect 227 0 234 1;
#X connect 227 0 235 0;
#X connect 228 0 234 0;
#X connect 229 0 230 0;
#X connect 230 0 231 0;
#X connect 230 1 232 1;
#X connect 231 0 232 0;
#X connect 232 0 207 1;
#X connect 233 0 199 0;
#X connect 234 0 198 0;
#X connect 235 0 236 0;
#X connect 236 0 237 0;
#X connect 237 0 240 0;
#X connect 238 0 239 0;
#X connect 238 0 239 1;
#X connect 239 0 244 0;
#X connect 240 0 238 0;
#X connect 241 0 247 0;
#X connect 242 0 241 1;
#X connect 244 0 208 0;
#X connect 245 0 208 0;
#X connect 246 0 208 1;
#X connect 247 0 209 0;
#X connect 247 0 209 1;
#X connect 248 0 249 0;
#X connect 249 0 250 0;
#X connect 250 0 251 0;
#X connect 251 0 252 0;
#X connect 252 0 253 0;
#X connect 253 0 254 0;
#X connect 253 0 254 1;
#X connect 254 0 255 0;
#X connect 255 0 259 0;
#X connect 256 0 257 0;
#X connect 257 0 259 1;
#X connect 259 0 258 0;
#X connect 259 0 258 1;
